<?xml version="1.0" encoding="UTF-8"?>
<svg id="Layer_1" xmlns="http://www.w3.org/2000/svg" version="1.1" viewBox="0 0 98.2 8.8">
  <!-- Generator: Adobe Illustrator 29.3.1, SVG Export Plug-In . SVG Version: 2.1.0 Build 151)  -->
  <defs>
    <style>
      .st0 {
        fill: none;
      }

      .st1 {
        fill: #4a4747;
      }
    </style>
  </defs>
  <g>
    <path class="st1" d="M1.1,0v8.6H0V0h1.1Z"/>
    <path class="st1" d="M8.9,5.3c0,.2,0,.5,0,.6h-4.4c0,1.2.8,1.9,2.1,1.9s1.7-.2,2.2-.6v1c-.5.3-1.3.5-2.2.5-1.9,0-3.2-1.3-3.2-3.1s1.3-3.1,2.9-3.1,2.7,1.3,2.7,2.8ZM6.2,3.4c-1,0-1.6.8-1.7,1.7h3.3c0-.9-.5-1.7-1.6-1.7Z"/>
    <path class="st1" d="M16.2,5.3c0,.2,0,.5,0,.6h-4.4c0,1.2.8,1.9,2.1,1.9s1.7-.2,2.2-.6v1c-.5.3-1.3.5-2.2.5-1.9,0-3.2-1.3-3.2-3.1s1.3-3.1,2.9-3.1,2.7,1.3,2.7,2.8ZM13.5,3.4c-1,0-1.6.8-1.7,1.7h3.3c0-.9-.5-1.7-1.6-1.7Z"/>
    <path class="st1" d="M19.9,6.1c-1.1-.3-1.8-.8-1.8-1.9s.9-1.7,2.1-1.7,1.3.2,1.7.4v1c-.4-.2-1-.4-1.6-.4s-1.2.2-1.2.8.4.7,1.2,1c1.3.4,1.9.9,1.9,1.9s-.9,1.7-2.2,1.7-1.5-.2-1.9-.4v-1c.6.3,1.3.5,1.9.5s1.2-.2,1.2-.8-.4-.7-1.3-1Z"/>
    <path class="st1" d="M29.9,5.6c0,1.8-1.3,3.1-3.1,3.1s-3.1-1.3-3.1-3.1,1.3-3.1,3.1-3.1,3.1,1.3,3.1,3.1ZM28.8,5.6c0-1.3-.8-2.2-2-2.2s-2,.9-2,2.2.8,2.2,2,2.2,2-.9,2-2.2Z"/>
    <path class="st1" d="M36,8.6v-.8c0-.3,0-.4,0-.5h0c-.2.5-1,1.4-2.2,1.4s-2-.9-2-2.4v-3.8h1.1v3.5c0,.8.1,1.6,1.1,1.6s1.9-.9,1.9-2.2v-3h1.1v6h-1Z"/>
    <path class="st1" d="M42.5,5.1l2.3,3.5h-1.3l-1.9-2.9-1,1.1v1.8h-1.1V0h1.1v5.6l2.7-3h1.3l-2.2,2.5Z"/>
    <path class="st1" d="M55.3,2.6l-2.1,6.1h-1.1c-.4-1.2-1.1-3.2-1.5-4.5-.4,1.4-1,3.3-1.5,4.5h-1.1l-2.1-6.1h1.2c.5,1.5,1.1,3.5,1.5,4.9.4-1.3,1.1-3.4,1.5-4.9h.9c.5,1.5,1.1,3.5,1.5,4.9.4-1.3,1.1-3.4,1.5-4.9h1.2Z"/>
    <path class="st1" d="M62.4,5.6c0,1.8-1.3,3.1-3.1,3.1s-3.1-1.3-3.1-3.1,1.3-3.1,3.1-3.1,3.1,1.3,3.1,3.1ZM61.3,5.6c0-1.3-.8-2.2-2-2.2s-2,.9-2,2.2.8,2.2,2,2.2,2-.9,2-2.2Z"/>
    <path class="st1" d="M65.5,2.6v.8c0,.3,0,.4,0,.5h0c.2-.5,1-1.4,2.3-1.4s2,.9,2,2.4v3.8h-1.1v-3.5c0-.8-.1-1.6-1.1-1.6s-2,.9-2,2.2v3h-1.1V2.6h1Z"/>
    <path class="st1" d="M72.4,7.4c.4,0,.7.3.7.7s-.3.7-.7.7-.7-.3-.7-.7.3-.7.7-.7Z"/>
    <path class="st1" d="M77.6,7.8c.8,0,1.4-.3,1.8-.5v1c-.4.2-.9.5-1.9.5-1.8,0-3.1-1.3-3.1-3.1s1.3-3.1,3.1-3.1,1.5.3,1.8.5v1.1c-.4-.3-1-.5-1.8-.5-1.2,0-2,.9-2,2.1s.8,2.1,2,2.1Z"/>
    <path class="st1" d="M87,5.6c0,1.8-1.3,3.1-3.1,3.1s-3.1-1.3-3.1-3.1,1.3-3.1,3.1-3.1,3.1,1.3,3.1,3.1ZM85.9,5.6c0-1.3-.8-2.2-2-2.2s-2,.9-2,2.2.8,2.2,2,2.2,2-.9,2-2.2Z"/>
    <path class="st1" d="M90.1,2.6v.8c0,.3,0,.4,0,.5h0c.3-.8,1.2-1.4,2.2-1.4s1.6.5,1.8,1.4h0c.4-.7,1.2-1.4,2.1-1.4,1.5,0,2.1.9,2.1,2.4v3.8h-1.1v-3.5c0-.9-.2-1.6-1.1-1.6s-1.8,1.2-1.8,2.3v2.8h-1.1v-3.6c0-.8-.2-1.5-1.1-1.5s-1.8,1.2-1.8,2.3v2.8h-1.1V2.6h1Z"/>
  </g>
  <path class="st0" d="M-58.1-29.2"/>
</svg>